# xmcd
#
# Track frame offsets:
#	150
#	15635
#	31714
#	45621
#	59689
#	72846
#	85836
#	99738
#	113292
#	127738
#	141233
#	155900
#	170219
#	184518
#
# Disc length: 2658
#
# Revision: 2
# Processed by: cddbd v1.5.1PL0 Copyright (c) Steve Scherf et al.
# Submitted via: audiograbber 1.83.01
# Normalized: r1:DSETVAR1
#
DISCID=b70a600e
DTITLE=Various Artist - Goldene Volksmusikparade 2002_7
DYEAR=2002
DGENRE=Volksmusik
TTITLE0=Jantje Smit - Bella Maria
TTITLE1=Nockalm Quintett - Moonlight Lady
TTITLE2=Petra Frey and Oliver Haidt - Trennen uns auch Meere
TTITLE3=Monika Martin - Mein Brief
TTITLE4=Eberhard Hertel - Musik bringt gute Laune
TTITLE5=Zellberg Buam - Mein Zuhaus' such' i mir aus
TTITLE6=Marc Pircher - A kloanes Stückerl Himmel
TTITLE7=Oswald Sattler - Gran Paradiso
TTITLE8=Die jungen Zillertaler - Happy Weekend
TTITLE9=Judith and Mel - Frag die Liebe
TTITLE10=Bergfeuer - Land hinterm Regen
TTITLE11=Diana - Ich krieg nie genug von dir
TTITLE12=Die Edlseer - Wenn's Sommer wird
TTITLE13=Alpentrio Tirol - Es wird alles gut Cherie
EXTD=
EXTT0=
EXTT1=
EXTT2=
EXTT3=
EXTT4=
EXTT5=
EXTT6=
EXTT7=
EXTT8=
EXTT9=
EXTT10=
EXTT11=
EXTT12=
EXTT13=
PLAYORDER=
